<svg xmlns="http://www.w3.org/2000/svg" viewBox="0 0 64 64">
  <defs>
    <linearGradient id="crust" x1="0" y1="0" x2="0" y2="1">
      <stop offset="0" stop-color="#F6C453"/>
      <stop offset="1" stop-color="#E09F3E"/>
    </linearGradient>
  </defs>
  <!-- spicchio di pizza -->
  <path d="M32 6 L58 54 A54 54 0 0 1 6 54 Z" fill="url(#crust)" stroke="#B5731F" stroke-width="2" stroke-linejoin="round"/>
  <!-- benda ninja verde -->
  <rect x="4" y="26" width="56" height="13" rx="2" fill="#22A559"/>
  <!-- occhi -->
  <path d="M20 30 h9 v6 h-9 a3 3 0 0 1 -3 -3 a3 3 0 0 1 3 -3 z" fill="#0B1A10"/>
  <path d="M44 30 h-9 v6 h9 a3 3 0 0 0 3 -3 a3 3 0 0 0 -3 -3 z" fill="#0B1A10"/>
  <!-- nodo benda -->
  <path d="M58 28 l6 -3 v16 l-6 -3 z" fill="#188045"/>
  <!-- salamini -->
  <circle cx="32" cy="47" r="3.2" fill="#D1495B"/>
  <circle cx="24" cy="50" r="2.6" fill="#D1495B"/>
  <circle cx="40" cy="50" r="2.6" fill="#D1495B"/>
</svg>
